<mxfile host="65bd71144e">
    <diagram id="JJi7G2gW_8i9NbNBm611" name="第 1 页">
        <mxGraphModel dx="1469" dy="1706" grid="1" gridSize="10" guides="1" tooltips="1" connect="1" arrows="1" fold="1" page="1" pageScale="1" pageWidth="827" pageHeight="1169" math="1" shadow="0">
            <root>
                <mxCell id="0"/>
                <mxCell id="1" parent="0"/>
                <mxCell id="245" value="&lt;font style=&quot;font-size: 19px;&quot; face=&quot;Times New Roman&quot;&gt;(d) 2.3.4&lt;/font&gt;" style="rounded=0;whiteSpace=wrap;html=1;container=1;verticalAlign=bottom;strokeColor=none;fillColor=none;" vertex="1" parent="1">
                    <mxGeometry x="0.5" y="750" width="820" height="250" as="geometry">
                        <mxRectangle x="177" y="190" width="50" height="40" as="alternateBounds"/>
                    </mxGeometry>
                </mxCell>
                <mxCell id="252" value="" style="group" vertex="1" connectable="0" parent="245">
                    <mxGeometry x="14.5" y="20" width="797" height="210" as="geometry"/>
                </mxCell>
                <mxCell id="126" style="edgeStyle=none;html=1;endArrow=none;endFill=0;" edge="1" source="127" parent="252">
                    <mxGeometry relative="1" as="geometry">
                        <mxPoint x="110" as="targetPoint"/>
                    </mxGeometry>
                </mxCell>
                <mxCell id="127" value="\(p\)" style="ellipse;whiteSpace=wrap;html=1;fontFamily=Times New Roman;fontSize=19;container=0;fillColor=#DDD;fontColor=default;strokeWidth=0.5;fontStyle=0;" vertex="1" parent="252">
                    <mxGeometry x="90" y="20" width="40" height="40" as="geometry"/>
                </mxCell>
                <mxCell id="128" value="\(u\)" style="ellipse;whiteSpace=wrap;html=1;fontFamily=Times New Roman;fontSize=19;container=0;fillColor=#808080;fontColor=#FFFFFF;strokeWidth=0.5;fontStyle=0;" vertex="1" parent="252">
                    <mxGeometry x="30" y="70" width="40" height="40" as="geometry"/>
                </mxCell>
                <mxCell id="129" style="edgeStyle=none;html=1;endArrow=none;endFill=0;" edge="1" source="127" target="128" parent="252">
                    <mxGeometry relative="1" as="geometry"/>
                </mxCell>
                <mxCell id="130" value="\(s\)" style="ellipse;whiteSpace=wrap;html=1;fontFamily=Times New Roman;fontSize=19;container=0;fillColor=#808080;strokeWidth=0.5;fontStyle=0;fontColor=#FFFFFF;" vertex="1" parent="252">
                    <mxGeometry x="150" y="70" width="40" height="40" as="geometry"/>
                </mxCell>
                <mxCell id="131" style="edgeStyle=none;html=1;endArrow=none;endFill=0;" edge="1" source="127" target="130" parent="252">
                    <mxGeometry relative="1" as="geometry"/>
                </mxCell>
                <mxCell id="132" value="\(n_1\)" style="ellipse;whiteSpace=wrap;html=1;fontFamily=Times New Roman;fontSize=19;container=0;fillColor=#DDD;fontColor=default;strokeWidth=0.5;fontStyle=0;" vertex="1" parent="252">
                    <mxGeometry x="120" y="120" width="40" height="40" as="geometry"/>
                </mxCell>
                <mxCell id="133" style="edgeStyle=none;html=1;endArrow=none;endFill=0;" edge="1" source="130" target="132" parent="252">
                    <mxGeometry relative="1" as="geometry"/>
                </mxCell>
                <mxCell id="134" value="\(n_2\)" style="ellipse;whiteSpace=wrap;html=1;fontFamily=Times New Roman;fontSize=19;container=0;fillColor=#DDD;fontColor=default;strokeWidth=0.5;fontStyle=0;" vertex="1" parent="252">
                    <mxGeometry x="180" y="120" width="40" height="40" as="geometry"/>
                </mxCell>
                <mxCell id="135" style="edgeStyle=none;html=1;endArrow=none;endFill=0;" edge="1" source="130" target="134" parent="252">
                    <mxGeometry relative="1" as="geometry"/>
                </mxCell>
                <mxCell id="136" value="\(h-1\)" style="ellipse;whiteSpace=wrap;html=1;fontFamily=Times New Roman;fontSize=19;container=0;fillColor=none;strokeWidth=0.5;fontStyle=0;strokeColor=none;" vertex="1" parent="252">
                    <mxGeometry x="120" y="170" width="40" height="40" as="geometry"/>
                </mxCell>
                <mxCell id="137" style="edgeStyle=none;html=1;endArrow=none;endFill=0;" edge="1" source="132" target="136" parent="252">
                    <mxGeometry relative="1" as="geometry">
                        <mxPoint x="140" y="170" as="targetPoint"/>
                    </mxGeometry>
                </mxCell>
                <mxCell id="138" value="\(h-1\)" style="ellipse;whiteSpace=wrap;html=1;fontFamily=Times New Roman;fontSize=19;container=0;fillColor=none;strokeWidth=0.5;fontStyle=0;strokeColor=none;" vertex="1" parent="252">
                    <mxGeometry x="180" y="170" width="40" height="40" as="geometry"/>
                </mxCell>
                <mxCell id="139" style="edgeStyle=none;html=1;endArrow=none;endFill=0;" edge="1" source="134" target="138" parent="252">
                    <mxGeometry relative="1" as="geometry">
                        <mxPoint x="200" y="170" as="targetPoint"/>
                    </mxGeometry>
                </mxCell>
                <mxCell id="140" value="\(h-2\)" style="ellipse;whiteSpace=wrap;html=1;fontFamily=Times New Roman;fontSize=19;container=0;fillColor=none;strokeWidth=0.5;fontStyle=0;strokeColor=none;" vertex="1" parent="252">
                    <mxGeometry y="120" width="40" height="40" as="geometry"/>
                </mxCell>
                <mxCell id="141" style="edgeStyle=none;html=1;endArrow=none;endFill=0;" edge="1" source="128" target="140" parent="252">
                    <mxGeometry relative="1" as="geometry"/>
                </mxCell>
                <mxCell id="142" value="\(h-2\)" style="ellipse;whiteSpace=wrap;html=1;fontFamily=Times New Roman;fontSize=19;container=0;fillColor=none;strokeWidth=0.5;fontStyle=0;strokeColor=none;" vertex="1" parent="252">
                    <mxGeometry x="60" y="120" width="40" height="40" as="geometry"/>
                </mxCell>
                <mxCell id="143" style="edgeStyle=none;html=1;endArrow=none;endFill=0;" edge="1" source="128" target="142" parent="252">
                    <mxGeometry relative="1" as="geometry"/>
                </mxCell>
                <mxCell id="144" value="" style="group" vertex="1" connectable="0" parent="252">
                    <mxGeometry x="250" width="219.5" height="200.00000000000006" as="geometry"/>
                </mxCell>
                <mxCell id="145" style="edgeStyle=none;html=1;endArrow=none;endFill=0;" edge="1" parent="144" source="149">
                    <mxGeometry relative="1" as="geometry">
                        <mxPoint x="144.5" as="targetPoint"/>
                    </mxGeometry>
                </mxCell>
                <mxCell id="146" value="\(p\)" style="ellipse;whiteSpace=wrap;html=1;fontFamily=Times New Roman;fontSize=19;container=0;fillColor=#DDD;fontColor=default;strokeWidth=0.5;fontStyle=0;" vertex="1" parent="144">
                    <mxGeometry x="70" y="70" width="40" height="40.00000000000004" as="geometry"/>
                </mxCell>
                <mxCell id="147" value="\(u\)" style="ellipse;whiteSpace=wrap;html=1;fontFamily=Times New Roman;fontSize=19;container=0;fillColor=#808080;fontColor=#FFFFFF;strokeWidth=0.5;fontStyle=0;" vertex="1" parent="144">
                    <mxGeometry x="30" y="110" width="40" height="40.00000000000004" as="geometry"/>
                </mxCell>
                <mxCell id="148" style="edgeStyle=none;html=1;endArrow=none;endFill=0;" edge="1" parent="144" source="146" target="147">
                    <mxGeometry relative="1" as="geometry"/>
                </mxCell>
                <mxCell id="149" value="\(s\)" style="ellipse;whiteSpace=wrap;html=1;fontFamily=Times New Roman;fontSize=19;container=0;fillColor=#808080;strokeWidth=0.5;fontStyle=0;fontColor=#FFFFFF;" vertex="1" parent="144">
                    <mxGeometry x="124.5" y="20" width="40" height="40.00000000000004" as="geometry"/>
                </mxCell>
                <mxCell id="150" style="edgeStyle=none;html=1;endArrow=none;endFill=0;" edge="1" parent="144" source="146" target="149">
                    <mxGeometry relative="1" as="geometry"/>
                </mxCell>
                <mxCell id="151" value="\(n_1\)" style="ellipse;whiteSpace=wrap;html=1;fontFamily=Times New Roman;fontSize=19;container=0;fillColor=#DDD;fontColor=default;strokeWidth=0.5;fontStyle=0;" vertex="1" parent="144">
                    <mxGeometry x="120" y="110" width="40" height="40.00000000000004" as="geometry"/>
                </mxCell>
                <mxCell id="152" style="edgeStyle=none;html=1;endArrow=none;endFill=0;" edge="1" parent="144" source="146" target="151">
                    <mxGeometry relative="1" as="geometry">
                        <mxPoint x="150.5" y="163.00000000000017" as="targetPoint"/>
                    </mxGeometry>
                </mxCell>
                <mxCell id="153" value="\(n_2\)" style="ellipse;whiteSpace=wrap;html=1;fontFamily=Times New Roman;fontSize=19;container=0;fillColor=#DDD;fontColor=default;strokeWidth=0.5;fontStyle=0;" vertex="1" parent="144">
                    <mxGeometry x="179.5" y="70" width="40" height="40.00000000000004" as="geometry"/>
                </mxCell>
                <mxCell id="154" style="edgeStyle=none;html=1;endArrow=none;endFill=0;" edge="1" parent="144" source="149" target="153">
                    <mxGeometry relative="1" as="geometry"/>
                </mxCell>
                <mxCell id="155" value="\(h-1\)" style="ellipse;whiteSpace=wrap;html=1;fontFamily=Times New Roman;fontSize=19;container=0;fillColor=none;strokeWidth=0.5;fontStyle=0;strokeColor=none;" vertex="1" parent="144">
                    <mxGeometry x="120" y="160" width="40" height="40.00000000000004" as="geometry"/>
                </mxCell>
                <mxCell id="156" style="edgeStyle=none;html=1;endArrow=none;endFill=0;" edge="1" parent="144" source="151" target="155">
                    <mxGeometry relative="1" as="geometry">
                        <mxPoint x="130" y="159.99999999999994" as="targetPoint"/>
                    </mxGeometry>
                </mxCell>
                <mxCell id="157" value="\(h-1\)" style="ellipse;whiteSpace=wrap;html=1;fontFamily=Times New Roman;fontSize=19;container=0;fillColor=none;strokeWidth=0.5;fontStyle=0;strokeColor=none;" vertex="1" parent="144">
                    <mxGeometry x="179.5" y="120" width="40" height="40.00000000000004" as="geometry"/>
                </mxCell>
                <mxCell id="158" style="edgeStyle=none;html=1;endArrow=none;endFill=0;" edge="1" parent="144" source="153" target="157">
                    <mxGeometry relative="1" as="geometry">
                        <mxPoint x="189.5" y="119.99999999999989" as="targetPoint"/>
                    </mxGeometry>
                </mxCell>
                <mxCell id="159" value="\(h-2\)" style="ellipse;whiteSpace=wrap;html=1;fontFamily=Times New Roman;fontSize=19;container=0;fillColor=none;strokeWidth=0.5;fontStyle=0;strokeColor=none;" vertex="1" parent="144">
                    <mxGeometry y="160" width="40" height="40.00000000000004" as="geometry"/>
                </mxCell>
                <mxCell id="160" style="edgeStyle=none;html=1;endArrow=none;endFill=0;" edge="1" parent="144" source="147" target="159">
                    <mxGeometry relative="1" as="geometry"/>
                </mxCell>
                <mxCell id="161" value="\(h-2\)" style="ellipse;whiteSpace=wrap;html=1;fontFamily=Times New Roman;fontSize=19;container=0;fillColor=none;strokeWidth=0.5;fontStyle=0;strokeColor=none;" vertex="1" parent="144">
                    <mxGeometry x="60" y="160" width="40" height="40.00000000000004" as="geometry"/>
                </mxCell>
                <mxCell id="162" style="edgeStyle=none;html=1;endArrow=none;endFill=0;" edge="1" parent="144" source="147" target="161">
                    <mxGeometry relative="1" as="geometry"/>
                </mxCell>
                <mxCell id="163" value="" style="endArrow=classic;html=1;startSize=6;endSize=6;strokeWidth=2;" edge="1" parent="252">
                    <mxGeometry width="50" height="50" relative="1" as="geometry">
                        <mxPoint x="220" y="89.99999999999977" as="sourcePoint"/>
                        <mxPoint x="260" y="89.99999999999977" as="targetPoint"/>
                    </mxGeometry>
                </mxCell>
                <mxCell id="164" value="" style="group" vertex="1" connectable="0" parent="252">
                    <mxGeometry x="490" width="219.5" height="200.00000000000006" as="geometry"/>
                </mxCell>
                <mxCell id="165" style="edgeStyle=none;html=1;endArrow=none;endFill=0;" edge="1" parent="164" source="169">
                    <mxGeometry relative="1" as="geometry">
                        <mxPoint x="144.5" as="targetPoint"/>
                    </mxGeometry>
                </mxCell>
                <mxCell id="166" value="\(p\)" style="ellipse;whiteSpace=wrap;html=1;fontFamily=Times New Roman;fontSize=19;container=0;fillColor=#808080;fontColor=#FFFFFF;strokeWidth=0.5;fontStyle=0;" vertex="1" parent="164">
                    <mxGeometry x="70" y="70" width="40" height="40.00000000000004" as="geometry"/>
                </mxCell>
                <mxCell id="167" value="\(u\)" style="ellipse;whiteSpace=wrap;html=1;fontFamily=Times New Roman;fontSize=19;container=0;fillColor=#808080;fontColor=#FFFFFF;strokeWidth=0.5;fontStyle=0;" vertex="1" parent="164">
                    <mxGeometry x="30" y="110" width="40" height="40.00000000000004" as="geometry"/>
                </mxCell>
                <mxCell id="168" style="edgeStyle=none;html=1;endArrow=none;endFill=0;" edge="1" parent="164" source="166" target="167">
                    <mxGeometry relative="1" as="geometry"/>
                </mxCell>
                <mxCell id="169" value="\(s\)" style="ellipse;whiteSpace=wrap;html=1;fontFamily=Times New Roman;fontSize=19;container=0;fillColor=#DDD;strokeWidth=0.5;fontStyle=0;fontColor=default;" vertex="1" parent="164">
                    <mxGeometry x="124.5" y="20" width="40" height="40.00000000000004" as="geometry"/>
                </mxCell>
                <mxCell id="170" style="edgeStyle=none;html=1;endArrow=none;endFill=0;" edge="1" parent="164" source="166" target="169">
                    <mxGeometry relative="1" as="geometry"/>
                </mxCell>
                <mxCell id="171" value="\(n_1\)" style="ellipse;whiteSpace=wrap;html=1;fontFamily=Times New Roman;fontSize=19;container=0;fillColor=#DDD;fontColor=default;strokeWidth=0.5;fontStyle=0;" vertex="1" parent="164">
                    <mxGeometry x="120" y="110" width="40" height="40.00000000000004" as="geometry"/>
                </mxCell>
                <mxCell id="172" style="edgeStyle=none;html=1;endArrow=none;endFill=0;" edge="1" parent="164" source="166" target="171">
                    <mxGeometry relative="1" as="geometry">
                        <mxPoint x="150.5" y="163.00000000000017" as="targetPoint"/>
                    </mxGeometry>
                </mxCell>
                <mxCell id="173" value="\(n_2\)" style="ellipse;whiteSpace=wrap;html=1;fontFamily=Times New Roman;fontSize=19;container=0;fillColor=#808080;fontColor=#FFFFFF;strokeWidth=0.5;fontStyle=0;" vertex="1" parent="164">
                    <mxGeometry x="179.5" y="70" width="40" height="40.00000000000004" as="geometry"/>
                </mxCell>
                <mxCell id="174" style="edgeStyle=none;html=1;endArrow=none;endFill=0;" edge="1" parent="164" source="169" target="173">
                    <mxGeometry relative="1" as="geometry"/>
                </mxCell>
                <mxCell id="175" value="\(h-1\)" style="ellipse;whiteSpace=wrap;html=1;fontFamily=Times New Roman;fontSize=19;container=0;fillColor=none;strokeWidth=0.5;fontStyle=0;strokeColor=none;" vertex="1" parent="164">
                    <mxGeometry x="120" y="160" width="40" height="40.00000000000004" as="geometry"/>
                </mxCell>
                <mxCell id="176" style="edgeStyle=none;html=1;endArrow=none;endFill=0;" edge="1" parent="164" source="171" target="175">
                    <mxGeometry relative="1" as="geometry">
                        <mxPoint x="130" y="159.99999999999994" as="targetPoint"/>
                    </mxGeometry>
                </mxCell>
                <mxCell id="177" value="\(h-1\)" style="ellipse;whiteSpace=wrap;html=1;fontFamily=Times New Roman;fontSize=19;container=0;fillColor=none;strokeWidth=0.5;fontStyle=0;strokeColor=none;" vertex="1" parent="164">
                    <mxGeometry x="179.5" y="120" width="40" height="40.00000000000004" as="geometry"/>
                </mxCell>
                <mxCell id="178" style="edgeStyle=none;html=1;endArrow=none;endFill=0;" edge="1" parent="164" source="173" target="177">
                    <mxGeometry relative="1" as="geometry">
                        <mxPoint x="189.5" y="119.99999999999989" as="targetPoint"/>
                    </mxGeometry>
                </mxCell>
                <mxCell id="179" value="\(h-2\)" style="ellipse;whiteSpace=wrap;html=1;fontFamily=Times New Roman;fontSize=19;container=0;fillColor=none;strokeWidth=0.5;fontStyle=0;strokeColor=none;" vertex="1" parent="164">
                    <mxGeometry y="160" width="40" height="40.00000000000004" as="geometry"/>
                </mxCell>
                <mxCell id="180" style="edgeStyle=none;html=1;endArrow=none;endFill=0;" edge="1" parent="164" source="167" target="179">
                    <mxGeometry relative="1" as="geometry"/>
                </mxCell>
                <mxCell id="181" value="\(h-2\)" style="ellipse;whiteSpace=wrap;html=1;fontFamily=Times New Roman;fontSize=19;container=0;fillColor=none;strokeWidth=0.5;fontStyle=0;strokeColor=none;" vertex="1" parent="164">
                    <mxGeometry x="60" y="160" width="40" height="40.00000000000004" as="geometry"/>
                </mxCell>
                <mxCell id="182" style="edgeStyle=none;html=1;endArrow=none;endFill=0;" edge="1" parent="164" source="167" target="181">
                    <mxGeometry relative="1" as="geometry"/>
                </mxCell>
                <mxCell id="183" value="break" style="rounded=0;whiteSpace=wrap;html=1;fontSize=19;fontFamily=Times New Roman;fillColor=none;" vertex="1" parent="252">
                    <mxGeometry x="730" y="69.99999999999977" width="67" height="40" as="geometry"/>
                </mxCell>
                <mxCell id="184" value="" style="endArrow=classic;html=1;startSize=6;endSize=6;strokeWidth=2;" edge="1" parent="252">
                    <mxGeometry width="50" height="50" relative="1" as="geometry">
                        <mxPoint x="480" y="89.99999999999977" as="sourcePoint"/>
                        <mxPoint x="520" y="89.99999999999977" as="targetPoint"/>
                    </mxGeometry>
                </mxCell>
                <mxCell id="246" value="&lt;font style=&quot;font-size: 19px;&quot; face=&quot;Times New Roman&quot;&gt;(c) 2.3.3&lt;/font&gt;" style="rounded=0;whiteSpace=wrap;html=1;container=1;verticalAlign=bottom;strokeColor=none;fillColor=none;" vertex="1" parent="1">
                    <mxGeometry y="500" width="820" height="250" as="geometry">
                        <mxRectangle x="177" y="190" width="50" height="40" as="alternateBounds"/>
                    </mxGeometry>
                </mxCell>
                <mxCell id="251" value="" style="group" vertex="1" connectable="0" parent="246">
                    <mxGeometry x="15" y="19.999999999999773" width="797" height="210" as="geometry"/>
                </mxCell>
                <mxCell id="185" value="" style="group" vertex="1" connectable="0" parent="251">
                    <mxGeometry width="220" height="210" as="geometry"/>
                </mxCell>
                <mxCell id="186" style="edgeStyle=none;html=1;endArrow=none;endFill=0;" edge="1" parent="185" source="187">
                    <mxGeometry relative="1" as="geometry">
                        <mxPoint x="110" as="targetPoint"/>
                    </mxGeometry>
                </mxCell>
                <mxCell id="187" value="\(p\)" style="ellipse;whiteSpace=wrap;html=1;fontFamily=Times New Roman;fontSize=19;container=0;fillColor=#DDD;fontColor=default;strokeWidth=0.5;fontStyle=0;" vertex="1" parent="185">
                    <mxGeometry x="90" y="20" width="40" height="40" as="geometry"/>
                </mxCell>
                <mxCell id="188" value="\(u\)" style="ellipse;whiteSpace=wrap;html=1;fontFamily=Times New Roman;fontSize=19;container=0;fillColor=#808080;fontColor=#FFFFFF;strokeWidth=0.5;fontStyle=0;" vertex="1" parent="185">
                    <mxGeometry x="30" y="70" width="40" height="40" as="geometry"/>
                </mxCell>
                <mxCell id="189" style="edgeStyle=none;html=1;endArrow=none;endFill=0;" edge="1" parent="185" source="187" target="188">
                    <mxGeometry relative="1" as="geometry"/>
                </mxCell>
                <mxCell id="190" value="\(s\)" style="ellipse;whiteSpace=wrap;html=1;fontFamily=Times New Roman;fontSize=19;container=0;fillColor=#808080;strokeWidth=0.5;fontStyle=0;fontColor=#FFFFFF;" vertex="1" parent="185">
                    <mxGeometry x="150" y="70" width="40" height="40" as="geometry"/>
                </mxCell>
                <mxCell id="191" style="edgeStyle=none;html=1;endArrow=none;endFill=0;" edge="1" parent="185" source="187" target="190">
                    <mxGeometry relative="1" as="geometry"/>
                </mxCell>
                <mxCell id="192" value="\(n_1\)" style="ellipse;whiteSpace=wrap;html=1;fontFamily=Times New Roman;fontSize=19;container=0;fillColor=#808080;fontColor=#FFFFFF;strokeWidth=0.5;fontStyle=0;" vertex="1" parent="185">
                    <mxGeometry x="120" y="120" width="40" height="40" as="geometry"/>
                </mxCell>
                <mxCell id="193" style="edgeStyle=none;html=1;endArrow=none;endFill=0;" edge="1" parent="185" source="190" target="192">
                    <mxGeometry relative="1" as="geometry"/>
                </mxCell>
                <mxCell id="194" value="\(n_2\)" style="ellipse;whiteSpace=wrap;html=1;fontFamily=Times New Roman;fontSize=19;container=0;fillColor=#DDD;fontColor=default;strokeWidth=0.5;fontStyle=0;" vertex="1" parent="185">
                    <mxGeometry x="180" y="120" width="40" height="40" as="geometry"/>
                </mxCell>
                <mxCell id="195" style="edgeStyle=none;html=1;endArrow=none;endFill=0;" edge="1" parent="185" source="190" target="194">
                    <mxGeometry relative="1" as="geometry"/>
                </mxCell>
                <mxCell id="196" value="\(h-2\)" style="ellipse;whiteSpace=wrap;html=1;fontFamily=Times New Roman;fontSize=19;container=0;fillColor=none;strokeWidth=0.5;fontStyle=0;strokeColor=none;" vertex="1" parent="185">
                    <mxGeometry x="120" y="170" width="40" height="40" as="geometry"/>
                </mxCell>
                <mxCell id="197" style="edgeStyle=none;html=1;endArrow=none;endFill=0;" edge="1" parent="185" source="192" target="196">
                    <mxGeometry relative="1" as="geometry">
                        <mxPoint x="140" y="170" as="targetPoint"/>
                    </mxGeometry>
                </mxCell>
                <mxCell id="198" value="\(h-1\)" style="ellipse;whiteSpace=wrap;html=1;fontFamily=Times New Roman;fontSize=19;container=0;fillColor=none;strokeWidth=0.5;fontStyle=0;strokeColor=none;" vertex="1" parent="185">
                    <mxGeometry x="180" y="170" width="40" height="40" as="geometry"/>
                </mxCell>
                <mxCell id="199" style="edgeStyle=none;html=1;endArrow=none;endFill=0;" edge="1" parent="185" source="194" target="198">
                    <mxGeometry relative="1" as="geometry">
                        <mxPoint x="200" y="170" as="targetPoint"/>
                    </mxGeometry>
                </mxCell>
                <mxCell id="200" value="\(h-2\)" style="ellipse;whiteSpace=wrap;html=1;fontFamily=Times New Roman;fontSize=19;container=0;fillColor=none;strokeWidth=0.5;fontStyle=0;strokeColor=none;" vertex="1" parent="185">
                    <mxGeometry y="120" width="40" height="40" as="geometry"/>
                </mxCell>
                <mxCell id="201" style="edgeStyle=none;html=1;endArrow=none;endFill=0;" edge="1" parent="185" source="188" target="200">
                    <mxGeometry relative="1" as="geometry"/>
                </mxCell>
                <mxCell id="202" value="\(h-2\)" style="ellipse;whiteSpace=wrap;html=1;fontFamily=Times New Roman;fontSize=19;container=0;fillColor=none;strokeWidth=0.5;fontStyle=0;strokeColor=none;" vertex="1" parent="185">
                    <mxGeometry x="60" y="120" width="40" height="40" as="geometry"/>
                </mxCell>
                <mxCell id="203" style="edgeStyle=none;html=1;endArrow=none;endFill=0;" edge="1" parent="185" source="188" target="202">
                    <mxGeometry relative="1" as="geometry"/>
                </mxCell>
                <mxCell id="204" value="" style="group" vertex="1" connectable="0" parent="251">
                    <mxGeometry x="250" y="2.2737367544323206e-13" width="219.5" height="200.00000000000006" as="geometry"/>
                </mxCell>
                <mxCell id="205" style="edgeStyle=none;html=1;endArrow=none;endFill=0;" edge="1" parent="204" source="209">
                    <mxGeometry relative="1" as="geometry">
                        <mxPoint x="144.5" as="targetPoint"/>
                    </mxGeometry>
                </mxCell>
                <mxCell id="206" value="\(p\)" style="ellipse;whiteSpace=wrap;html=1;fontFamily=Times New Roman;fontSize=19;container=0;fillColor=#DDD;fontColor=default;strokeWidth=0.5;fontStyle=0;" vertex="1" parent="204">
                    <mxGeometry x="70" y="70" width="40" height="40.00000000000004" as="geometry"/>
                </mxCell>
                <mxCell id="207" value="\(u\)" style="ellipse;whiteSpace=wrap;html=1;fontFamily=Times New Roman;fontSize=19;container=0;fillColor=#808080;fontColor=#FFFFFF;strokeWidth=0.5;fontStyle=0;" vertex="1" parent="204">
                    <mxGeometry x="30" y="110" width="40" height="40.00000000000004" as="geometry"/>
                </mxCell>
                <mxCell id="208" style="edgeStyle=none;html=1;endArrow=none;endFill=0;" edge="1" parent="204" source="206" target="207">
                    <mxGeometry relative="1" as="geometry"/>
                </mxCell>
                <mxCell id="209" value="\(s\)" style="ellipse;whiteSpace=wrap;html=1;fontFamily=Times New Roman;fontSize=19;container=0;fillColor=#808080;strokeWidth=0.5;fontStyle=0;fontColor=#FFFFFF;" vertex="1" parent="204">
                    <mxGeometry x="124.5" y="20" width="40" height="40.00000000000004" as="geometry"/>
                </mxCell>
                <mxCell id="210" style="edgeStyle=none;html=1;endArrow=none;endFill=0;" edge="1" parent="204" source="206" target="209">
                    <mxGeometry relative="1" as="geometry"/>
                </mxCell>
                <mxCell id="211" value="\(n_1\)" style="ellipse;whiteSpace=wrap;html=1;fontFamily=Times New Roman;fontSize=19;container=0;fillColor=#808080;fontColor=#FFFFFF;strokeWidth=0.5;fontStyle=0;" vertex="1" parent="204">
                    <mxGeometry x="120" y="110" width="40" height="40.00000000000004" as="geometry"/>
                </mxCell>
                <mxCell id="212" style="edgeStyle=none;html=1;endArrow=none;endFill=0;" edge="1" parent="204" source="206" target="211">
                    <mxGeometry relative="1" as="geometry">
                        <mxPoint x="150.5" y="163.00000000000017" as="targetPoint"/>
                    </mxGeometry>
                </mxCell>
                <mxCell id="213" value="\(n_2\)" style="ellipse;whiteSpace=wrap;html=1;fontFamily=Times New Roman;fontSize=19;container=0;fillColor=#DDD;fontColor=default;strokeWidth=0.5;fontStyle=0;" vertex="1" parent="204">
                    <mxGeometry x="179.5" y="70" width="40" height="40.00000000000004" as="geometry"/>
                </mxCell>
                <mxCell id="214" style="edgeStyle=none;html=1;endArrow=none;endFill=0;" edge="1" parent="204" source="209" target="213">
                    <mxGeometry relative="1" as="geometry"/>
                </mxCell>
                <mxCell id="215" value="\(h-2\)" style="ellipse;whiteSpace=wrap;html=1;fontFamily=Times New Roman;fontSize=19;container=0;fillColor=none;strokeWidth=0.5;fontStyle=0;strokeColor=none;" vertex="1" parent="204">
                    <mxGeometry x="120" y="160" width="40" height="40.00000000000004" as="geometry"/>
                </mxCell>
                <mxCell id="216" style="edgeStyle=none;html=1;endArrow=none;endFill=0;" edge="1" parent="204" source="211" target="215">
                    <mxGeometry relative="1" as="geometry">
                        <mxPoint x="130" y="159.99999999999994" as="targetPoint"/>
                    </mxGeometry>
                </mxCell>
                <mxCell id="217" value="\(h-1\)" style="ellipse;whiteSpace=wrap;html=1;fontFamily=Times New Roman;fontSize=19;container=0;fillColor=none;strokeWidth=0.5;fontStyle=0;strokeColor=none;" vertex="1" parent="204">
                    <mxGeometry x="179.5" y="120" width="40" height="40.00000000000004" as="geometry"/>
                </mxCell>
                <mxCell id="218" style="edgeStyle=none;html=1;endArrow=none;endFill=0;" edge="1" parent="204" source="213" target="217">
                    <mxGeometry relative="1" as="geometry">
                        <mxPoint x="189.5" y="119.99999999999989" as="targetPoint"/>
                    </mxGeometry>
                </mxCell>
                <mxCell id="219" value="\(h-2\)" style="ellipse;whiteSpace=wrap;html=1;fontFamily=Times New Roman;fontSize=19;container=0;fillColor=none;strokeWidth=0.5;fontStyle=0;strokeColor=none;" vertex="1" parent="204">
                    <mxGeometry y="160" width="40" height="40.00000000000004" as="geometry"/>
                </mxCell>
                <mxCell id="220" style="edgeStyle=none;html=1;endArrow=none;endFill=0;" edge="1" parent="204" source="207" target="219">
                    <mxGeometry relative="1" as="geometry"/>
                </mxCell>
                <mxCell id="221" value="\(h-2\)" style="ellipse;whiteSpace=wrap;html=1;fontFamily=Times New Roman;fontSize=19;container=0;fillColor=none;strokeWidth=0.5;fontStyle=0;strokeColor=none;" vertex="1" parent="204">
                    <mxGeometry x="60" y="160" width="40" height="40.00000000000004" as="geometry"/>
                </mxCell>
                <mxCell id="222" style="edgeStyle=none;html=1;endArrow=none;endFill=0;" edge="1" parent="204" source="207" target="221">
                    <mxGeometry relative="1" as="geometry"/>
                </mxCell>
                <mxCell id="223" value="" style="group" vertex="1" connectable="0" parent="251">
                    <mxGeometry x="490" y="2.2737367544323206e-13" width="219.5" height="200.00000000000006" as="geometry"/>
                </mxCell>
                <mxCell id="224" style="edgeStyle=none;html=1;endArrow=none;endFill=0;" edge="1" parent="223" source="228">
                    <mxGeometry relative="1" as="geometry">
                        <mxPoint x="144.5" as="targetPoint"/>
                    </mxGeometry>
                </mxCell>
                <mxCell id="225" value="\(p\)" style="ellipse;whiteSpace=wrap;html=1;fontFamily=Times New Roman;fontSize=19;container=0;fillColor=#808080;fontColor=#FFFFFF;strokeWidth=0.5;fontStyle=0;" vertex="1" parent="223">
                    <mxGeometry x="70" y="70" width="40" height="40.00000000000004" as="geometry"/>
                </mxCell>
                <mxCell id="226" value="\(u\)" style="ellipse;whiteSpace=wrap;html=1;fontFamily=Times New Roman;fontSize=19;container=0;fillColor=#808080;fontColor=#FFFFFF;strokeWidth=0.5;fontStyle=0;" vertex="1" parent="223">
                    <mxGeometry x="30" y="110" width="40" height="40.00000000000004" as="geometry"/>
                </mxCell>
                <mxCell id="227" style="edgeStyle=none;html=1;endArrow=none;endFill=0;" edge="1" parent="223" source="225" target="226">
                    <mxGeometry relative="1" as="geometry"/>
                </mxCell>
                <mxCell id="228" value="\(s\)" style="ellipse;whiteSpace=wrap;html=1;fontFamily=Times New Roman;fontSize=19;container=0;fillColor=#DDD;strokeWidth=0.5;fontStyle=0;fontColor=default;" vertex="1" parent="223">
                    <mxGeometry x="124.5" y="20" width="40" height="40.00000000000004" as="geometry"/>
                </mxCell>
                <mxCell id="229" style="edgeStyle=none;html=1;endArrow=none;endFill=0;" edge="1" parent="223" source="225" target="228">
                    <mxGeometry relative="1" as="geometry"/>
                </mxCell>
                <mxCell id="230" value="\(n_1\)" style="ellipse;whiteSpace=wrap;html=1;fontFamily=Times New Roman;fontSize=19;container=0;fillColor=#808080;fontColor=#FFFFFF;strokeWidth=0.5;fontStyle=0;" vertex="1" parent="223">
                    <mxGeometry x="120" y="110" width="40" height="40.00000000000004" as="geometry"/>
                </mxCell>
                <mxCell id="231" style="edgeStyle=none;html=1;endArrow=none;endFill=0;" edge="1" parent="223" source="225" target="230">
                    <mxGeometry relative="1" as="geometry">
                        <mxPoint x="150.5" y="163.00000000000017" as="targetPoint"/>
                    </mxGeometry>
                </mxCell>
                <mxCell id="232" value="\(n_2\)" style="ellipse;whiteSpace=wrap;html=1;fontFamily=Times New Roman;fontSize=19;container=0;fillColor=#808080;fontColor=#FFFFFF;strokeWidth=0.5;fontStyle=0;" vertex="1" parent="223">
                    <mxGeometry x="179.5" y="70" width="40" height="40.00000000000004" as="geometry"/>
                </mxCell>
                <mxCell id="233" style="edgeStyle=none;html=1;endArrow=none;endFill=0;" edge="1" parent="223" source="228" target="232">
                    <mxGeometry relative="1" as="geometry"/>
                </mxCell>
                <mxCell id="234" value="\(h-2\)" style="ellipse;whiteSpace=wrap;html=1;fontFamily=Times New Roman;fontSize=19;container=0;fillColor=none;strokeWidth=0.5;fontStyle=0;strokeColor=none;" vertex="1" parent="223">
                    <mxGeometry x="120" y="160" width="40" height="40.00000000000004" as="geometry"/>
                </mxCell>
                <mxCell id="235" style="edgeStyle=none;html=1;endArrow=none;endFill=0;" edge="1" parent="223" source="230" target="234">
                    <mxGeometry relative="1" as="geometry">
                        <mxPoint x="130" y="159.99999999999994" as="targetPoint"/>
                    </mxGeometry>
                </mxCell>
                <mxCell id="236" value="\(h-1\)" style="ellipse;whiteSpace=wrap;html=1;fontFamily=Times New Roman;fontSize=19;container=0;fillColor=none;strokeWidth=0.5;fontStyle=0;strokeColor=none;" vertex="1" parent="223">
                    <mxGeometry x="179.5" y="120" width="40" height="40.00000000000004" as="geometry"/>
                </mxCell>
                <mxCell id="237" style="edgeStyle=none;html=1;endArrow=none;endFill=0;" edge="1" parent="223" source="232" target="236">
                    <mxGeometry relative="1" as="geometry">
                        <mxPoint x="189.5" y="119.99999999999989" as="targetPoint"/>
                    </mxGeometry>
                </mxCell>
                <mxCell id="238" value="\(h-2\)" style="ellipse;whiteSpace=wrap;html=1;fontFamily=Times New Roman;fontSize=19;container=0;fillColor=none;strokeWidth=0.5;fontStyle=0;strokeColor=none;" vertex="1" parent="223">
                    <mxGeometry y="160" width="40" height="40.00000000000004" as="geometry"/>
                </mxCell>
                <mxCell id="239" style="edgeStyle=none;html=1;endArrow=none;endFill=0;" edge="1" parent="223" source="226" target="238">
                    <mxGeometry relative="1" as="geometry"/>
                </mxCell>
                <mxCell id="240" value="\(h-2\)" style="ellipse;whiteSpace=wrap;html=1;fontFamily=Times New Roman;fontSize=19;container=0;fillColor=none;strokeWidth=0.5;fontStyle=0;strokeColor=none;" vertex="1" parent="223">
                    <mxGeometry x="60" y="160" width="40" height="40.00000000000004" as="geometry"/>
                </mxCell>
                <mxCell id="241" style="edgeStyle=none;html=1;endArrow=none;endFill=0;" edge="1" parent="223" source="226" target="240">
                    <mxGeometry relative="1" as="geometry"/>
                </mxCell>
                <mxCell id="242" value="break" style="rounded=0;whiteSpace=wrap;html=1;fontSize=19;fontFamily=Times New Roman;fillColor=none;" vertex="1" parent="251">
                    <mxGeometry x="730" y="70" width="67" height="40" as="geometry"/>
                </mxCell>
                <mxCell id="243" value="" style="endArrow=classic;html=1;startSize=6;endSize=6;strokeWidth=2;" edge="1" parent="251">
                    <mxGeometry width="50" height="50" relative="1" as="geometry">
                        <mxPoint x="220" y="90" as="sourcePoint"/>
                        <mxPoint x="260" y="90" as="targetPoint"/>
                    </mxGeometry>
                </mxCell>
                <mxCell id="244" value="" style="endArrow=classic;html=1;startSize=6;endSize=6;strokeWidth=2;" edge="1" parent="251">
                    <mxGeometry width="50" height="50" relative="1" as="geometry">
                        <mxPoint x="480" y="90" as="sourcePoint"/>
                        <mxPoint x="520" y="90" as="targetPoint"/>
                    </mxGeometry>
                </mxCell>
                <mxCell id="247" value="&lt;font style=&quot;font-size: 19px;&quot; face=&quot;Times New Roman&quot;&gt;(b) 2.3.2&lt;/font&gt;" style="rounded=0;whiteSpace=wrap;html=1;container=1;verticalAlign=bottom;strokeColor=none;fillColor=none;" vertex="1" parent="1">
                    <mxGeometry y="250" width="820" height="250" as="geometry">
                        <mxRectangle x="177" y="190" width="50" height="40" as="alternateBounds"/>
                    </mxGeometry>
                </mxCell>
                <mxCell id="250" value="" style="group" vertex="1" connectable="0" parent="247">
                    <mxGeometry x="15" y="20" width="797" height="210" as="geometry"/>
                </mxCell>
                <mxCell id="67" style="edgeStyle=none;html=1;endArrow=none;endFill=0;" edge="1" parent="250" source="68">
                    <mxGeometry relative="1" as="geometry">
                        <mxPoint x="110" as="targetPoint"/>
                    </mxGeometry>
                </mxCell>
                <mxCell id="68" value="\(p\)" style="ellipse;whiteSpace=wrap;html=1;fontFamily=Times New Roman;fontSize=19;container=0;fillColor=#808080;fontColor=#FFFFFF;strokeWidth=0.5;fontStyle=0;" vertex="1" parent="250">
                    <mxGeometry x="90" y="20" width="40" height="40" as="geometry"/>
                </mxCell>
                <mxCell id="69" value="\(u\)" style="ellipse;whiteSpace=wrap;html=1;fontFamily=Times New Roman;fontSize=19;container=0;fillColor=#808080;fontColor=#FFFFFF;strokeWidth=0.5;fontStyle=0;" vertex="1" parent="250">
                    <mxGeometry x="30" y="70" width="40" height="40" as="geometry"/>
                </mxCell>
                <mxCell id="70" style="edgeStyle=none;html=1;endArrow=none;endFill=0;" edge="1" parent="250" source="68" target="69">
                    <mxGeometry relative="1" as="geometry"/>
                </mxCell>
                <mxCell id="71" value="\(s\)" style="ellipse;whiteSpace=wrap;html=1;fontFamily=Times New Roman;fontSize=19;container=0;fillColor=#808080;strokeWidth=0.5;fontStyle=0;fontColor=#FFFFFF;" vertex="1" parent="250">
                    <mxGeometry x="150" y="70" width="40" height="40" as="geometry"/>
                </mxCell>
                <mxCell id="72" style="edgeStyle=none;html=1;endArrow=none;endFill=0;" edge="1" parent="250" source="68" target="71">
                    <mxGeometry relative="1" as="geometry"/>
                </mxCell>
                <mxCell id="73" value="\(n_1\)" style="ellipse;whiteSpace=wrap;html=1;fontFamily=Times New Roman;fontSize=19;container=0;fillColor=#DDD;fontColor=default;strokeWidth=0.5;fontStyle=0;" vertex="1" parent="250">
                    <mxGeometry x="120" y="120" width="40" height="40" as="geometry"/>
                </mxCell>
                <mxCell id="74" style="edgeStyle=none;html=1;endArrow=none;endFill=0;" edge="1" parent="250" source="71" target="73">
                    <mxGeometry relative="1" as="geometry"/>
                </mxCell>
                <mxCell id="75" value="\(n_2\)" style="ellipse;whiteSpace=wrap;html=1;fontFamily=Times New Roman;fontSize=19;container=0;fillColor=#DDD;fontColor=default;strokeWidth=0.5;fontStyle=0;" vertex="1" parent="250">
                    <mxGeometry x="180" y="120" width="40" height="40" as="geometry"/>
                </mxCell>
                <mxCell id="76" style="edgeStyle=none;html=1;endArrow=none;endFill=0;" edge="1" parent="250" source="71" target="75">
                    <mxGeometry relative="1" as="geometry"/>
                </mxCell>
                <mxCell id="77" value="\(h-1\)" style="ellipse;whiteSpace=wrap;html=1;fontFamily=Times New Roman;fontSize=19;container=0;fillColor=none;strokeWidth=0.5;fontStyle=0;strokeColor=none;" vertex="1" parent="250">
                    <mxGeometry x="120" y="170" width="40" height="40" as="geometry"/>
                </mxCell>
                <mxCell id="78" style="edgeStyle=none;html=1;endArrow=none;endFill=0;" edge="1" parent="250" source="73" target="77">
                    <mxGeometry relative="1" as="geometry">
                        <mxPoint x="140" y="170" as="targetPoint"/>
                    </mxGeometry>
                </mxCell>
                <mxCell id="79" value="\(h-1\)" style="ellipse;whiteSpace=wrap;html=1;fontFamily=Times New Roman;fontSize=19;container=0;fillColor=none;strokeWidth=0.5;fontStyle=0;strokeColor=none;" vertex="1" parent="250">
                    <mxGeometry x="180" y="170" width="40" height="40" as="geometry"/>
                </mxCell>
                <mxCell id="80" style="edgeStyle=none;html=1;endArrow=none;endFill=0;" edge="1" parent="250" source="75" target="79">
                    <mxGeometry relative="1" as="geometry">
                        <mxPoint x="200" y="170" as="targetPoint"/>
                    </mxGeometry>
                </mxCell>
                <mxCell id="81" value="\(h-2\)" style="ellipse;whiteSpace=wrap;html=1;fontFamily=Times New Roman;fontSize=19;container=0;fillColor=none;strokeWidth=0.5;fontStyle=0;strokeColor=none;" vertex="1" parent="250">
                    <mxGeometry y="120" width="40" height="40" as="geometry"/>
                </mxCell>
                <mxCell id="82" style="edgeStyle=none;html=1;endArrow=none;endFill=0;" edge="1" parent="250" source="69" target="81">
                    <mxGeometry relative="1" as="geometry"/>
                </mxCell>
                <mxCell id="83" value="\(h-2\)" style="ellipse;whiteSpace=wrap;html=1;fontFamily=Times New Roman;fontSize=19;container=0;fillColor=none;strokeWidth=0.5;fontStyle=0;strokeColor=none;" vertex="1" parent="250">
                    <mxGeometry x="60" y="120" width="40" height="40" as="geometry"/>
                </mxCell>
                <mxCell id="84" style="edgeStyle=none;html=1;endArrow=none;endFill=0;" edge="1" parent="250" source="69" target="83">
                    <mxGeometry relative="1" as="geometry"/>
                </mxCell>
                <mxCell id="85" value="" style="group" vertex="1" connectable="0" parent="250">
                    <mxGeometry x="250" width="219.5" height="200.00000000000006" as="geometry"/>
                </mxCell>
                <mxCell id="86" style="edgeStyle=none;html=1;endArrow=none;endFill=0;" edge="1" parent="85" source="90">
                    <mxGeometry relative="1" as="geometry">
                        <mxPoint x="144.5" as="targetPoint"/>
                    </mxGeometry>
                </mxCell>
                <mxCell id="87" value="\(p\)" style="ellipse;whiteSpace=wrap;html=1;fontFamily=Times New Roman;fontSize=19;container=0;fillColor=#808080;fontColor=#FFFFFF;strokeWidth=0.5;fontStyle=0;" vertex="1" parent="85">
                    <mxGeometry x="70" y="70" width="40" height="40.00000000000004" as="geometry"/>
                </mxCell>
                <mxCell id="88" value="\(u\)" style="ellipse;whiteSpace=wrap;html=1;fontFamily=Times New Roman;fontSize=19;container=0;fillColor=#808080;fontColor=#FFFFFF;strokeWidth=0.5;fontStyle=0;" vertex="1" parent="85">
                    <mxGeometry x="30" y="110" width="40" height="40.00000000000004" as="geometry"/>
                </mxCell>
                <mxCell id="89" style="edgeStyle=none;html=1;endArrow=none;endFill=0;" edge="1" parent="85" source="87" target="88">
                    <mxGeometry relative="1" as="geometry"/>
                </mxCell>
                <mxCell id="90" value="\(s\)" style="ellipse;whiteSpace=wrap;html=1;fontFamily=Times New Roman;fontSize=19;container=0;fillColor=#808080;strokeWidth=0.5;fontStyle=0;fontColor=#FFFFFF;" vertex="1" parent="85">
                    <mxGeometry x="124.5" y="20" width="40" height="40.00000000000004" as="geometry"/>
                </mxCell>
                <mxCell id="91" style="edgeStyle=none;html=1;endArrow=none;endFill=0;" edge="1" parent="85" source="87" target="90">
                    <mxGeometry relative="1" as="geometry"/>
                </mxCell>
                <mxCell id="92" value="\(n_1\)" style="ellipse;whiteSpace=wrap;html=1;fontFamily=Times New Roman;fontSize=19;container=0;fillColor=#DDD;fontColor=default;strokeWidth=0.5;fontStyle=0;" vertex="1" parent="85">
                    <mxGeometry x="120" y="110" width="40" height="40.00000000000004" as="geometry"/>
                </mxCell>
                <mxCell id="93" style="edgeStyle=none;html=1;endArrow=none;endFill=0;" edge="1" parent="85" source="87" target="92">
                    <mxGeometry relative="1" as="geometry">
                        <mxPoint x="150.5" y="163.00000000000017" as="targetPoint"/>
                    </mxGeometry>
                </mxCell>
                <mxCell id="94" value="\(n_2\)" style="ellipse;whiteSpace=wrap;html=1;fontFamily=Times New Roman;fontSize=19;container=0;fillColor=#DDD;fontColor=default;strokeWidth=0.5;fontStyle=0;" vertex="1" parent="85">
                    <mxGeometry x="179.5" y="70" width="40" height="40.00000000000004" as="geometry"/>
                </mxCell>
                <mxCell id="95" style="edgeStyle=none;html=1;endArrow=none;endFill=0;" edge="1" parent="85" source="90" target="94">
                    <mxGeometry relative="1" as="geometry"/>
                </mxCell>
                <mxCell id="96" value="\(h-1\)" style="ellipse;whiteSpace=wrap;html=1;fontFamily=Times New Roman;fontSize=19;container=0;fillColor=none;strokeWidth=0.5;fontStyle=0;strokeColor=none;" vertex="1" parent="85">
                    <mxGeometry x="120" y="160" width="40" height="40.00000000000004" as="geometry"/>
                </mxCell>
                <mxCell id="97" style="edgeStyle=none;html=1;endArrow=none;endFill=0;" edge="1" parent="85" source="92" target="96">
                    <mxGeometry relative="1" as="geometry">
                        <mxPoint x="130" y="159.99999999999994" as="targetPoint"/>
                    </mxGeometry>
                </mxCell>
                <mxCell id="98" value="\(h-1\)" style="ellipse;whiteSpace=wrap;html=1;fontFamily=Times New Roman;fontSize=19;container=0;fillColor=none;strokeWidth=0.5;fontStyle=0;strokeColor=none;" vertex="1" parent="85">
                    <mxGeometry x="179.5" y="120" width="40" height="40.00000000000004" as="geometry"/>
                </mxCell>
                <mxCell id="99" style="edgeStyle=none;html=1;endArrow=none;endFill=0;" edge="1" parent="85" source="94" target="98">
                    <mxGeometry relative="1" as="geometry">
                        <mxPoint x="189.5" y="119.99999999999989" as="targetPoint"/>
                    </mxGeometry>
                </mxCell>
                <mxCell id="100" value="\(h-2\)" style="ellipse;whiteSpace=wrap;html=1;fontFamily=Times New Roman;fontSize=19;container=0;fillColor=none;strokeWidth=0.5;fontStyle=0;strokeColor=none;" vertex="1" parent="85">
                    <mxGeometry y="160" width="40" height="40.00000000000004" as="geometry"/>
                </mxCell>
                <mxCell id="101" style="edgeStyle=none;html=1;endArrow=none;endFill=0;" edge="1" parent="85" source="88" target="100">
                    <mxGeometry relative="1" as="geometry"/>
                </mxCell>
                <mxCell id="102" value="\(h-2\)" style="ellipse;whiteSpace=wrap;html=1;fontFamily=Times New Roman;fontSize=19;container=0;fillColor=none;strokeWidth=0.5;fontStyle=0;strokeColor=none;" vertex="1" parent="85">
                    <mxGeometry x="60" y="160" width="40" height="40.00000000000004" as="geometry"/>
                </mxCell>
                <mxCell id="103" style="edgeStyle=none;html=1;endArrow=none;endFill=0;" edge="1" parent="85" source="88" target="102">
                    <mxGeometry relative="1" as="geometry"/>
                </mxCell>
                <mxCell id="104" value="" style="endArrow=classic;html=1;startSize=6;endSize=6;strokeWidth=2;" edge="1" parent="250">
                    <mxGeometry width="50" height="50" relative="1" as="geometry">
                        <mxPoint x="220" y="89.99999999999977" as="sourcePoint"/>
                        <mxPoint x="260" y="89.99999999999977" as="targetPoint"/>
                    </mxGeometry>
                </mxCell>
                <mxCell id="105" value="" style="group" vertex="1" connectable="0" parent="250">
                    <mxGeometry x="490" width="219.5" height="200.00000000000006" as="geometry"/>
                </mxCell>
                <mxCell id="106" style="edgeStyle=none;html=1;endArrow=none;endFill=0;" edge="1" parent="105" source="110">
                    <mxGeometry relative="1" as="geometry">
                        <mxPoint x="144.5" as="targetPoint"/>
                    </mxGeometry>
                </mxCell>
                <mxCell id="107" value="\(p\)" style="ellipse;whiteSpace=wrap;html=1;fontFamily=Times New Roman;fontSize=19;container=0;fillColor=#808080;fontColor=#FFFFFF;strokeWidth=0.5;fontStyle=0;" vertex="1" parent="105">
                    <mxGeometry x="70" y="70" width="40" height="40.00000000000004" as="geometry"/>
                </mxCell>
                <mxCell id="108" value="\(u\)" style="ellipse;whiteSpace=wrap;html=1;fontFamily=Times New Roman;fontSize=19;container=0;fillColor=#808080;fontColor=#FFFFFF;strokeWidth=0.5;fontStyle=0;" vertex="1" parent="105">
                    <mxGeometry x="30" y="110" width="40" height="40.00000000000004" as="geometry"/>
                </mxCell>
                <mxCell id="109" style="edgeStyle=none;html=1;endArrow=none;endFill=0;" edge="1" parent="105" source="107" target="108">
                    <mxGeometry relative="1" as="geometry"/>
                </mxCell>
                <mxCell id="110" value="\(s\)" style="ellipse;whiteSpace=wrap;html=1;fontFamily=Times New Roman;fontSize=19;container=0;fillColor=#808080;strokeWidth=0.5;fontStyle=0;fontColor=#FFFFFF;" vertex="1" parent="105">
                    <mxGeometry x="124.5" y="20" width="40" height="40.00000000000004" as="geometry"/>
                </mxCell>
                <mxCell id="111" style="edgeStyle=none;html=1;endArrow=none;endFill=0;" edge="1" parent="105" source="107" target="110">
                    <mxGeometry relative="1" as="geometry"/>
                </mxCell>
                <mxCell id="112" value="\(n_1\)" style="ellipse;whiteSpace=wrap;html=1;fontFamily=Times New Roman;fontSize=19;container=0;fillColor=#DDD;fontColor=default;strokeWidth=0.5;fontStyle=0;" vertex="1" parent="105">
                    <mxGeometry x="120" y="110" width="40" height="40.00000000000004" as="geometry"/>
                </mxCell>
                <mxCell id="113" style="edgeStyle=none;html=1;endArrow=none;endFill=0;" edge="1" parent="105" source="107" target="112">
                    <mxGeometry relative="1" as="geometry">
                        <mxPoint x="150.5" y="163.00000000000017" as="targetPoint"/>
                    </mxGeometry>
                </mxCell>
                <mxCell id="114" value="\(n_2\)" style="ellipse;whiteSpace=wrap;html=1;fontFamily=Times New Roman;fontSize=19;container=0;fillColor=#808080;fontColor=#FFFFFF;strokeWidth=0.5;fontStyle=0;" vertex="1" parent="105">
                    <mxGeometry x="179.5" y="70" width="40" height="40.00000000000004" as="geometry"/>
                </mxCell>
                <mxCell id="115" style="edgeStyle=none;html=1;endArrow=none;endFill=0;" edge="1" parent="105" source="110" target="114">
                    <mxGeometry relative="1" as="geometry"/>
                </mxCell>
                <mxCell id="116" value="\(h-1\)" style="ellipse;whiteSpace=wrap;html=1;fontFamily=Times New Roman;fontSize=19;container=0;fillColor=none;strokeWidth=0.5;fontStyle=0;strokeColor=none;" vertex="1" parent="105">
                    <mxGeometry x="120" y="160" width="40" height="40.00000000000004" as="geometry"/>
                </mxCell>
                <mxCell id="117" style="edgeStyle=none;html=1;endArrow=none;endFill=0;" edge="1" parent="105" source="112" target="116">
                    <mxGeometry relative="1" as="geometry">
                        <mxPoint x="130" y="159.99999999999994" as="targetPoint"/>
                    </mxGeometry>
                </mxCell>
                <mxCell id="118" value="\(h-1\)" style="ellipse;whiteSpace=wrap;html=1;fontFamily=Times New Roman;fontSize=19;container=0;fillColor=none;strokeWidth=0.5;fontStyle=0;strokeColor=none;" vertex="1" parent="105">
                    <mxGeometry x="179.5" y="120" width="40" height="40.00000000000004" as="geometry"/>
                </mxCell>
                <mxCell id="119" style="edgeStyle=none;html=1;endArrow=none;endFill=0;" edge="1" parent="105" source="114" target="118">
                    <mxGeometry relative="1" as="geometry">
                        <mxPoint x="189.5" y="119.99999999999989" as="targetPoint"/>
                    </mxGeometry>
                </mxCell>
                <mxCell id="120" value="\(h-2\)" style="ellipse;whiteSpace=wrap;html=1;fontFamily=Times New Roman;fontSize=19;container=0;fillColor=none;strokeWidth=0.5;fontStyle=0;strokeColor=none;" vertex="1" parent="105">
                    <mxGeometry y="160" width="40" height="40.00000000000004" as="geometry"/>
                </mxCell>
                <mxCell id="121" style="edgeStyle=none;html=1;endArrow=none;endFill=0;" edge="1" parent="105" source="108" target="120">
                    <mxGeometry relative="1" as="geometry"/>
                </mxCell>
                <mxCell id="122" value="\(h-2\)" style="ellipse;whiteSpace=wrap;html=1;fontFamily=Times New Roman;fontSize=19;container=0;fillColor=none;strokeWidth=0.5;fontStyle=0;strokeColor=none;" vertex="1" parent="105">
                    <mxGeometry x="60" y="160" width="40" height="40.00000000000004" as="geometry"/>
                </mxCell>
                <mxCell id="123" style="edgeStyle=none;html=1;endArrow=none;endFill=0;" edge="1" parent="105" source="108" target="122">
                    <mxGeometry relative="1" as="geometry"/>
                </mxCell>
                <mxCell id="124" value="break" style="rounded=0;whiteSpace=wrap;html=1;fontSize=19;fontFamily=Times New Roman;fillColor=none;" vertex="1" parent="250">
                    <mxGeometry x="730" y="69.99999999999977" width="67" height="40" as="geometry"/>
                </mxCell>
                <mxCell id="125" value="" style="endArrow=classic;html=1;startSize=6;endSize=6;strokeWidth=2;" edge="1" parent="250">
                    <mxGeometry width="50" height="50" relative="1" as="geometry">
                        <mxPoint x="480" y="89.99999999999977" as="sourcePoint"/>
                        <mxPoint x="520" y="89.99999999999977" as="targetPoint"/>
                    </mxGeometry>
                </mxCell>
                <mxCell id="248" value="&lt;font style=&quot;font-size: 19px;&quot; face=&quot;Times New Roman&quot;&gt;(a) 2.3.1&lt;/font&gt;" style="rounded=0;whiteSpace=wrap;html=1;container=1;verticalAlign=bottom;strokeColor=none;fillColor=none;" vertex="1" parent="1">
                    <mxGeometry width="820" height="250" as="geometry">
                        <mxRectangle x="177" y="190" width="50" height="40" as="alternateBounds"/>
                    </mxGeometry>
                </mxCell>
                <mxCell id="249" value="" style="group" vertex="1" connectable="0" parent="1">
                    <mxGeometry x="15" y="19.999999999999773" width="797" height="210" as="geometry"/>
                </mxCell>
                <mxCell id="21" value="" style="group" vertex="1" connectable="0" parent="249">
                    <mxGeometry width="220" height="210" as="geometry"/>
                </mxCell>
                <mxCell id="3" style="edgeStyle=none;html=1;endArrow=none;endFill=0;" edge="1" parent="21" source="4">
                    <mxGeometry relative="1" as="geometry">
                        <mxPoint x="110" as="targetPoint"/>
                    </mxGeometry>
                </mxCell>
                <mxCell id="4" value="\(p\)" style="ellipse;whiteSpace=wrap;html=1;fontFamily=Times New Roman;fontSize=19;container=0;fillColor=#808080;fontColor=#FFFFFF;strokeWidth=0.5;fontStyle=0;" vertex="1" parent="21">
                    <mxGeometry x="90" y="20" width="40" height="40" as="geometry"/>
                </mxCell>
                <mxCell id="5" value="\(u\)" style="ellipse;whiteSpace=wrap;html=1;fontFamily=Times New Roman;fontSize=19;container=0;fillColor=#808080;fontColor=#FFFFFF;strokeWidth=0.5;fontStyle=0;" vertex="1" parent="21">
                    <mxGeometry x="30" y="70" width="40" height="40" as="geometry"/>
                </mxCell>
                <mxCell id="6" style="edgeStyle=none;html=1;endArrow=none;endFill=0;" edge="1" parent="21" source="4" target="5">
                    <mxGeometry relative="1" as="geometry"/>
                </mxCell>
                <mxCell id="7" value="\(s\)" style="ellipse;whiteSpace=wrap;html=1;fontFamily=Times New Roman;fontSize=19;container=0;fillColor=#808080;strokeWidth=0.5;fontStyle=0;fontColor=#FFFFFF;" vertex="1" parent="21">
                    <mxGeometry x="150" y="70" width="40" height="40" as="geometry"/>
                </mxCell>
                <mxCell id="8" style="edgeStyle=none;html=1;endArrow=none;endFill=0;" edge="1" parent="21" source="4" target="7">
                    <mxGeometry relative="1" as="geometry"/>
                </mxCell>
                <mxCell id="9" value="\(n_1\)" style="ellipse;whiteSpace=wrap;html=1;fontFamily=Times New Roman;fontSize=19;container=0;fillColor=#808080;fontColor=#FFFFFF;strokeWidth=0.5;fontStyle=0;" vertex="1" parent="21">
                    <mxGeometry x="120" y="120" width="40" height="40" as="geometry"/>
                </mxCell>
                <mxCell id="10" style="edgeStyle=none;html=1;endArrow=none;endFill=0;" edge="1" parent="21" source="7" target="9">
                    <mxGeometry relative="1" as="geometry"/>
                </mxCell>
                <mxCell id="11" value="\(n_2\)" style="ellipse;whiteSpace=wrap;html=1;fontFamily=Times New Roman;fontSize=19;container=0;fillColor=#DDD;fontColor=default;strokeWidth=0.5;fontStyle=0;" vertex="1" parent="21">
                    <mxGeometry x="180" y="120" width="40" height="40" as="geometry"/>
                </mxCell>
                <mxCell id="12" style="edgeStyle=none;html=1;endArrow=none;endFill=0;" edge="1" parent="21" source="7" target="11">
                    <mxGeometry relative="1" as="geometry"/>
                </mxCell>
                <mxCell id="13" value="\(h-2\)" style="ellipse;whiteSpace=wrap;html=1;fontFamily=Times New Roman;fontSize=19;container=0;fillColor=none;strokeWidth=0.5;fontStyle=0;strokeColor=none;" vertex="1" parent="21">
                    <mxGeometry x="120" y="170" width="40" height="40" as="geometry"/>
                </mxCell>
                <mxCell id="14" style="edgeStyle=none;html=1;endArrow=none;endFill=0;" edge="1" parent="21" source="9" target="13">
                    <mxGeometry relative="1" as="geometry">
                        <mxPoint x="140" y="170" as="targetPoint"/>
                    </mxGeometry>
                </mxCell>
                <mxCell id="15" value="\(h-1\)" style="ellipse;whiteSpace=wrap;html=1;fontFamily=Times New Roman;fontSize=19;container=0;fillColor=none;strokeWidth=0.5;fontStyle=0;strokeColor=none;" vertex="1" parent="21">
                    <mxGeometry x="180" y="170" width="40" height="40" as="geometry"/>
                </mxCell>
                <mxCell id="16" style="edgeStyle=none;html=1;endArrow=none;endFill=0;" edge="1" parent="21" source="11" target="15">
                    <mxGeometry relative="1" as="geometry">
                        <mxPoint x="200" y="170" as="targetPoint"/>
                    </mxGeometry>
                </mxCell>
                <mxCell id="17" value="\(h-2\)" style="ellipse;whiteSpace=wrap;html=1;fontFamily=Times New Roman;fontSize=19;container=0;fillColor=none;strokeWidth=0.5;fontStyle=0;strokeColor=none;" vertex="1" parent="21">
                    <mxGeometry y="120" width="40" height="40" as="geometry"/>
                </mxCell>
                <mxCell id="18" style="edgeStyle=none;html=1;endArrow=none;endFill=0;" edge="1" parent="21" source="5" target="17">
                    <mxGeometry relative="1" as="geometry"/>
                </mxCell>
                <mxCell id="19" value="\(h-2\)" style="ellipse;whiteSpace=wrap;html=1;fontFamily=Times New Roman;fontSize=19;container=0;fillColor=none;strokeWidth=0.5;fontStyle=0;strokeColor=none;" vertex="1" parent="21">
                    <mxGeometry x="60" y="120" width="40" height="40" as="geometry"/>
                </mxCell>
                <mxCell id="20" style="edgeStyle=none;html=1;endArrow=none;endFill=0;" edge="1" parent="21" source="5" target="19">
                    <mxGeometry relative="1" as="geometry"/>
                </mxCell>
                <mxCell id="42" value="" style="group" vertex="1" connectable="0" parent="249">
                    <mxGeometry x="250" y="2.2737367544323206e-13" width="219.5" height="200.00000000000006" as="geometry"/>
                </mxCell>
                <mxCell id="23" style="edgeStyle=none;html=1;endArrow=none;endFill=0;" edge="1" parent="42" source="27">
                    <mxGeometry relative="1" as="geometry">
                        <mxPoint x="144.5" as="targetPoint"/>
                    </mxGeometry>
                </mxCell>
                <mxCell id="24" value="\(p\)" style="ellipse;whiteSpace=wrap;html=1;fontFamily=Times New Roman;fontSize=19;container=0;fillColor=#808080;fontColor=#FFFFFF;strokeWidth=0.5;fontStyle=0;" vertex="1" parent="42">
                    <mxGeometry x="70" y="70" width="40" height="40.00000000000004" as="geometry"/>
                </mxCell>
                <mxCell id="25" value="\(u\)" style="ellipse;whiteSpace=wrap;html=1;fontFamily=Times New Roman;fontSize=19;container=0;fillColor=#808080;fontColor=#FFFFFF;strokeWidth=0.5;fontStyle=0;" vertex="1" parent="42">
                    <mxGeometry x="30" y="110" width="40" height="40.00000000000004" as="geometry"/>
                </mxCell>
                <mxCell id="26" style="edgeStyle=none;html=1;endArrow=none;endFill=0;" edge="1" parent="42" source="24" target="25">
                    <mxGeometry relative="1" as="geometry"/>
                </mxCell>
                <mxCell id="27" value="\(s\)" style="ellipse;whiteSpace=wrap;html=1;fontFamily=Times New Roman;fontSize=19;container=0;fillColor=#808080;strokeWidth=0.5;fontStyle=0;fontColor=#FFFFFF;" vertex="1" parent="42">
                    <mxGeometry x="124.5" y="20" width="40" height="40.00000000000004" as="geometry"/>
                </mxCell>
                <mxCell id="28" style="edgeStyle=none;html=1;endArrow=none;endFill=0;" edge="1" parent="42" source="24" target="27">
                    <mxGeometry relative="1" as="geometry"/>
                </mxCell>
                <mxCell id="29" value="\(n_1\)" style="ellipse;whiteSpace=wrap;html=1;fontFamily=Times New Roman;fontSize=19;container=0;fillColor=#808080;fontColor=#FFFFFF;strokeWidth=0.5;fontStyle=0;" vertex="1" parent="42">
                    <mxGeometry x="120" y="110" width="40" height="40.00000000000004" as="geometry"/>
                </mxCell>
                <mxCell id="30" style="edgeStyle=none;html=1;endArrow=none;endFill=0;" edge="1" parent="42" source="24" target="29">
                    <mxGeometry relative="1" as="geometry">
                        <mxPoint x="150.5" y="163.00000000000017" as="targetPoint"/>
                    </mxGeometry>
                </mxCell>
                <mxCell id="31" value="\(n_2\)" style="ellipse;whiteSpace=wrap;html=1;fontFamily=Times New Roman;fontSize=19;container=0;fillColor=#DDD;fontColor=default;strokeWidth=0.5;fontStyle=0;" vertex="1" parent="42">
                    <mxGeometry x="179.5" y="70" width="40" height="40.00000000000004" as="geometry"/>
                </mxCell>
                <mxCell id="32" style="edgeStyle=none;html=1;endArrow=none;endFill=0;" edge="1" parent="42" source="27" target="31">
                    <mxGeometry relative="1" as="geometry"/>
                </mxCell>
                <mxCell id="33" value="\(h-2\)" style="ellipse;whiteSpace=wrap;html=1;fontFamily=Times New Roman;fontSize=19;container=0;fillColor=none;strokeWidth=0.5;fontStyle=0;strokeColor=none;" vertex="1" parent="42">
                    <mxGeometry x="120" y="160" width="40" height="40.00000000000004" as="geometry"/>
                </mxCell>
                <mxCell id="34" style="edgeStyle=none;html=1;endArrow=none;endFill=0;" edge="1" parent="42" source="29" target="33">
                    <mxGeometry relative="1" as="geometry">
                        <mxPoint x="130" y="159.99999999999994" as="targetPoint"/>
                    </mxGeometry>
                </mxCell>
                <mxCell id="35" value="\(h-1\)" style="ellipse;whiteSpace=wrap;html=1;fontFamily=Times New Roman;fontSize=19;container=0;fillColor=none;strokeWidth=0.5;fontStyle=0;strokeColor=none;" vertex="1" parent="42">
                    <mxGeometry x="179.5" y="120" width="40" height="40.00000000000004" as="geometry"/>
                </mxCell>
                <mxCell id="36" style="edgeStyle=none;html=1;endArrow=none;endFill=0;" edge="1" parent="42" source="31" target="35">
                    <mxGeometry relative="1" as="geometry">
                        <mxPoint x="189.5" y="119.99999999999989" as="targetPoint"/>
                    </mxGeometry>
                </mxCell>
                <mxCell id="37" value="\(h-2\)" style="ellipse;whiteSpace=wrap;html=1;fontFamily=Times New Roman;fontSize=19;container=0;fillColor=none;strokeWidth=0.5;fontStyle=0;strokeColor=none;" vertex="1" parent="42">
                    <mxGeometry y="160" width="40" height="40.00000000000004" as="geometry"/>
                </mxCell>
                <mxCell id="38" style="edgeStyle=none;html=1;endArrow=none;endFill=0;" edge="1" parent="42" source="25" target="37">
                    <mxGeometry relative="1" as="geometry"/>
                </mxCell>
                <mxCell id="39" value="\(h-2\)" style="ellipse;whiteSpace=wrap;html=1;fontFamily=Times New Roman;fontSize=19;container=0;fillColor=none;strokeWidth=0.5;fontStyle=0;strokeColor=none;" vertex="1" parent="42">
                    <mxGeometry x="60" y="160" width="40" height="40.00000000000004" as="geometry"/>
                </mxCell>
                <mxCell id="40" style="edgeStyle=none;html=1;endArrow=none;endFill=0;" edge="1" parent="42" source="25" target="39">
                    <mxGeometry relative="1" as="geometry"/>
                </mxCell>
                <mxCell id="43" value="" style="group" vertex="1" connectable="0" parent="249">
                    <mxGeometry x="490" y="2.2737367544323206e-13" width="219.5" height="200.00000000000006" as="geometry"/>
                </mxCell>
                <mxCell id="44" style="edgeStyle=none;html=1;endArrow=none;endFill=0;" edge="1" parent="43" source="48">
                    <mxGeometry relative="1" as="geometry">
                        <mxPoint x="144.5" as="targetPoint"/>
                    </mxGeometry>
                </mxCell>
                <mxCell id="45" value="\(p\)" style="ellipse;whiteSpace=wrap;html=1;fontFamily=Times New Roman;fontSize=19;container=0;fillColor=#808080;fontColor=#FFFFFF;strokeWidth=0.5;fontStyle=0;" vertex="1" parent="43">
                    <mxGeometry x="70" y="70" width="40" height="40.00000000000004" as="geometry"/>
                </mxCell>
                <mxCell id="46" value="\(u\)" style="ellipse;whiteSpace=wrap;html=1;fontFamily=Times New Roman;fontSize=19;container=0;fillColor=#808080;fontColor=#FFFFFF;strokeWidth=0.5;fontStyle=0;" vertex="1" parent="43">
                    <mxGeometry x="30" y="110" width="40" height="40.00000000000004" as="geometry"/>
                </mxCell>
                <mxCell id="47" style="edgeStyle=none;html=1;endArrow=none;endFill=0;" edge="1" parent="43" source="45" target="46">
                    <mxGeometry relative="1" as="geometry"/>
                </mxCell>
                <mxCell id="48" value="\(s\)" style="ellipse;whiteSpace=wrap;html=1;fontFamily=Times New Roman;fontSize=19;container=0;fillColor=#808080;strokeWidth=0.5;fontStyle=0;fontColor=#FFFFFF;" vertex="1" parent="43">
                    <mxGeometry x="124.5" y="20" width="40" height="40.00000000000004" as="geometry"/>
                </mxCell>
                <mxCell id="49" style="edgeStyle=none;html=1;endArrow=none;endFill=0;" edge="1" parent="43" source="45" target="48">
                    <mxGeometry relative="1" as="geometry"/>
                </mxCell>
                <mxCell id="50" value="\(n_1\)" style="ellipse;whiteSpace=wrap;html=1;fontFamily=Times New Roman;fontSize=19;container=0;fillColor=#808080;fontColor=#FFFFFF;strokeWidth=0.5;fontStyle=0;" vertex="1" parent="43">
                    <mxGeometry x="120" y="110" width="40" height="40.00000000000004" as="geometry"/>
                </mxCell>
                <mxCell id="51" style="edgeStyle=none;html=1;endArrow=none;endFill=0;" edge="1" parent="43" source="45" target="50">
                    <mxGeometry relative="1" as="geometry">
                        <mxPoint x="150.5" y="163.00000000000017" as="targetPoint"/>
                    </mxGeometry>
                </mxCell>
                <mxCell id="52" value="\(n_2\)" style="ellipse;whiteSpace=wrap;html=1;fontFamily=Times New Roman;fontSize=19;container=0;fillColor=#808080;fontColor=#FFFFFF;strokeWidth=0.5;fontStyle=0;" vertex="1" parent="43">
                    <mxGeometry x="179.5" y="70" width="40" height="40.00000000000004" as="geometry"/>
                </mxCell>
                <mxCell id="53" style="edgeStyle=none;html=1;endArrow=none;endFill=0;" edge="1" parent="43" source="48" target="52">
                    <mxGeometry relative="1" as="geometry"/>
                </mxCell>
                <mxCell id="54" value="\(h-2\)" style="ellipse;whiteSpace=wrap;html=1;fontFamily=Times New Roman;fontSize=19;container=0;fillColor=none;strokeWidth=0.5;fontStyle=0;strokeColor=none;" vertex="1" parent="43">
                    <mxGeometry x="120" y="160" width="40" height="40.00000000000004" as="geometry"/>
                </mxCell>
                <mxCell id="55" style="edgeStyle=none;html=1;endArrow=none;endFill=0;" edge="1" parent="43" source="50" target="54">
                    <mxGeometry relative="1" as="geometry">
                        <mxPoint x="130" y="159.99999999999994" as="targetPoint"/>
                    </mxGeometry>
                </mxCell>
                <mxCell id="56" value="\(h-1\)" style="ellipse;whiteSpace=wrap;html=1;fontFamily=Times New Roman;fontSize=19;container=0;fillColor=none;strokeWidth=0.5;fontStyle=0;strokeColor=none;" vertex="1" parent="43">
                    <mxGeometry x="179.5" y="120" width="40" height="40.00000000000004" as="geometry"/>
                </mxCell>
                <mxCell id="57" style="edgeStyle=none;html=1;endArrow=none;endFill=0;" edge="1" parent="43" source="52" target="56">
                    <mxGeometry relative="1" as="geometry">
                        <mxPoint x="189.5" y="119.99999999999989" as="targetPoint"/>
                    </mxGeometry>
                </mxCell>
                <mxCell id="58" value="\(h-2\)" style="ellipse;whiteSpace=wrap;html=1;fontFamily=Times New Roman;fontSize=19;container=0;fillColor=none;strokeWidth=0.5;fontStyle=0;strokeColor=none;" vertex="1" parent="43">
                    <mxGeometry y="160" width="40" height="40.00000000000004" as="geometry"/>
                </mxCell>
                <mxCell id="59" style="edgeStyle=none;html=1;endArrow=none;endFill=0;" edge="1" parent="43" source="46" target="58">
                    <mxGeometry relative="1" as="geometry"/>
                </mxCell>
                <mxCell id="60" value="\(h-2\)" style="ellipse;whiteSpace=wrap;html=1;fontFamily=Times New Roman;fontSize=19;container=0;fillColor=none;strokeWidth=0.5;fontStyle=0;strokeColor=none;" vertex="1" parent="43">
                    <mxGeometry x="60" y="160" width="40" height="40.00000000000004" as="geometry"/>
                </mxCell>
                <mxCell id="61" style="edgeStyle=none;html=1;endArrow=none;endFill=0;" edge="1" parent="43" source="46" target="60">
                    <mxGeometry relative="1" as="geometry"/>
                </mxCell>
                <mxCell id="62" value="break" style="rounded=0;whiteSpace=wrap;html=1;fontSize=19;fontFamily=Times New Roman;fillColor=none;" vertex="1" parent="249">
                    <mxGeometry x="730" y="70" width="67" height="40" as="geometry"/>
                </mxCell>
                <mxCell id="63" value="" style="endArrow=classic;html=1;startSize=6;endSize=6;strokeWidth=2;" edge="1" parent="249">
                    <mxGeometry width="50" height="50" relative="1" as="geometry">
                        <mxPoint x="220" y="90" as="sourcePoint"/>
                        <mxPoint x="260" y="90" as="targetPoint"/>
                    </mxGeometry>
                </mxCell>
                <mxCell id="64" value="" style="endArrow=classic;html=1;startSize=6;endSize=6;strokeWidth=2;" edge="1" parent="249">
                    <mxGeometry width="50" height="50" relative="1" as="geometry">
                        <mxPoint x="480" y="90" as="sourcePoint"/>
                        <mxPoint x="520" y="90" as="targetPoint"/>
                    </mxGeometry>
                </mxCell>
            </root>
        </mxGraphModel>
    </diagram>
</mxfile>